    <svg class="about__svg-top" id="svg" viewBox="0 0 1440 390" xmlns="http://www.w3.org/2000/svg" class="transition duration-300 ease-in-out delay-150"><path d="M 0,400 L 0,150 C 49.10385990874339,141.00436551979283 98.20771981748678,132.00873103958565 147,117 C 195.79228018251322,101.99126896041435 244.27298063879635,80.96944136145024 302,86 C 359.72701936120365,91.03055863854976 426.70035762732766,122.1135035146134 486,137 C 545.2996423726723,151.8864964853866 596.9255888518929,150.5765445800962 644,142 C 691.0744111481071,133.4234554199038 733.5972869651006,117.58031816500186 782,111 C 830.4027130348994,104.41968183499814 884.685263287705,107.10218275989641 949,132 C 1013.314736712295,156.8978172401036 1087.6616598840792,204.0109507954125 1146,204 C 1204.3383401159208,203.9890492045875 1246.6680971759774,156.85401405845357 1293,140 C 1339.3319028240226,123.14598594154644 1389.6659514120113,136.5729929707732 1440,150 L 1440,400 L 0,400 Z" stroke="none" stroke-width="0" fill="#6d9b71" fill-opacity="1" class="transition-all duration-300 ease-in-out delay-150 path-0"></path></svg>