    <svg class="about__svg-bottom" id="svg" viewBox="0 0 1440 390"  xmlns="http://www.w3.org/2000/svg" class="transition duration-300 ease-in-out delay-150"><path d="M 0,400 L 0,150 C 40.2039708965347,127.41704279195955 80.4079417930694,104.8340855839191 138,102 C 195.5920582069306,99.1659144160809 270.57220372425707,116.08070045628315 325,148 C 379.42779627574293,179.91929954371685 413.30324330990254,226.84311259094832 464,207 C 514.6967566900975,187.15688740905168 582.2148230361327,100.54684917992353 638,78 C 693.7851769638673,55.453150820076466 737.8374645455667,96.96949068935754 784,133 C 830.1625354544333,169.03050931064246 878.4353187816006,199.57518806264642 943,193 C 1007.5646812183994,186.42481193735358 1088.4212603280307,142.72975706005673 1144,121 C 1199.5787396719693,99.27024293994327 1229.879639906277,99.50578369712666 1275,108 C 1320.120360093723,116.49421630287334 1380.0601800468617,133.24710815143666 1440,150 L 1440,400 L 0,400 Z" stroke="none" stroke-width="0" fill="#6d9b71" fill-opacity="1" class="transition-all duration-300 ease-in-out delay-150 path-0" transform="rotate(-180 720 200)"></path></svg>